<svg width="69" height="65" viewBox="0 0 69 65" fill="none" xmlns="http://www.w3.org/2000/svg">
<g id="biored-logos-03">
<path id="Vector" d="M62.6644 11.9244C63.5752 11.9974 64.2989 12.0253 65.0119 12.1302C65.1964 12.1581 65.4912 12.4276 65.4898 12.583C65.4792 13.7248 65.5775 14.9079 65.3133 15.9993C64.8884 17.7519 64.3719 19.5191 63.5952 21.1363C62.8715 22.642 61.7735 23.9697 60.8095 25.3559C59.7527 26.8748 58.3054 28.0207 56.7174 28.8611C54.5638 30.0017 52.2867 30.4013 49.9712 29.0377C48.9329 28.427 47.7246 28.2902 46.5854 28.8346C45.2696 29.4639 43.8834 30.0349 42.7336 30.9019C41.4178 31.895 41.4816 33.179 42.7668 34.212C43.8861 35.1108 45.1302 35.8544 46.3278 36.655C46.9227 37.0533 47.5374 36.7692 48.1243 36.6298C50.5182 36.0615 52.2708 37.2153 52.6479 39.6292C52.9586 41.6208 51.3268 43.3203 49.4241 43.4292C47.629 43.5314 46.0025 42.4121 45.6361 40.3939C45.5896 40.1377 45.5405 39.8336 45.6308 39.6066C46.0689 38.5046 45.4661 37.7955 44.7345 37.1542C44.0109 36.5183 43.274 35.8889 42.484 35.3405C42.0339 35.0285 41.4855 34.8095 40.9491 34.6846C40.3636 34.5492 39.9706 35.0538 39.7595 36.0057C39.4727 37.3003 39.7316 38.5577 40.0569 39.7951C40.2149 40.3979 40.7208 40.7232 41.3209 40.8958C42.4362 41.2158 43.3909 41.885 43.9538 42.8317C44.7133 44.1077 45.0678 45.5562 44.6774 47.0831C44.1437 49.1743 42.8292 50.6229 40.7513 51.0332C38.4901 51.4806 36.3458 50.8008 34.9809 48.3949C34.0422 46.7419 34.0687 45.0583 34.884 43.4066C35.4084 42.3444 36.2741 41.5411 37.3655 41.0339C37.8156 40.8255 38.0586 40.5334 38.21 40.0461C38.6654 38.5723 38.7491 37.0786 38.4145 35.5968C38.3043 35.1069 37.898 34.5187 37.4664 34.3102C36.9141 34.0433 36.2994 34.366 35.8134 34.8227C35.1575 35.4401 34.6437 36.0482 34.7008 37.0666C34.7459 37.8911 34.1311 38.4355 33.2933 38.6227C32.7065 38.7542 31.6137 38.3027 31.3296 37.8128C31.0441 37.3229 31.0468 36.0044 31.4557 35.6951C31.8634 35.3857 32.4263 35.0591 32.8963 35.0936C34.2865 35.1945 35.285 34.6753 36.1281 33.6158C36.8769 32.6744 36.7256 31.8765 35.5611 31.583C34.2652 31.2564 32.9402 31.032 31.6191 30.8196C30.5037 30.6417 29.3791 30.5115 28.2532 30.4239C27.4486 30.3615 26.8166 30.6762 26.1766 31.2551C25.0613 32.2668 23.399 32.1553 22.2624 30.9616C20.9984 29.6352 21.1657 27.8189 22.4709 26.7354C23.95 25.5099 26.1195 25.8007 27.0012 27.7246C27.3424 28.4695 27.8204 28.8133 28.5573 28.978C30.4533 29.3989 32.336 29.8809 34.2414 30.2526C35.0433 30.4093 35.8771 30.2194 36.4906 29.6273C37.1305 29.0112 37.0163 28.1468 36.7933 27.4418C36.5118 26.5549 36.0869 25.6639 35.5133 24.9416C35.2053 24.5526 34.4697 24.3866 33.9068 24.3335C31.0999 24.0653 28.8852 21.5015 28.864 18.7212C28.8467 16.5755 30.6339 13.8682 33.0132 13.2615C35.682 12.5803 37.7466 13.5363 38.9761 15.1469C40.5973 17.2686 40.8349 20.191 38.8168 22.3764C37.882 23.3882 37.6683 24.5154 37.8077 25.7476C37.9405 26.9213 38.2206 28.0698 38.9641 29.0683C39.7714 30.1517 41.0195 30.2911 41.9755 29.5702C42.9939 28.8014 43.9591 27.9331 44.8195 26.9917C45.7888 25.9308 46.1858 24.6787 45.9375 23.1545C45.6639 21.4789 45.96 19.859 46.9532 18.36C48.4987 16.0298 50.7944 14.7977 53.2759 13.8709C54.9449 13.2482 56.6895 12.7901 58.4355 12.4263C59.8801 12.1249 61.3752 12.0678 62.6671 11.9231L62.6644 11.9244Z" fill="#7FAA3E"/>
<path id="Vector_2" d="M62.0034 42.4733C61.5958 43.3217 61.2094 44.1821 60.7752 45.0173C59.6573 47.1709 58.2658 49.1532 56.6605 50.9576C55.1031 52.7076 53.45 54.3938 51.4518 55.6685C50.1134 56.5209 48.799 57.4436 47.3703 58.1128C45.7611 58.867 44.0562 59.4353 42.3581 59.9743C38.6377 61.156 34.7806 60.9954 30.958 60.8838C28.8907 60.8241 26.854 60.3806 24.8398 59.7898C22.0661 58.9772 19.5514 57.7039 17.1375 56.161C14.8233 54.6806 12.8516 52.8058 11.0286 50.7863C9.18698 48.7443 7.63219 46.4712 6.38411 44.0162C5.39627 42.071 4.52659 40.0661 3.60779 38.0864C3.57327 38.0134 3.56929 37.9258 3.62904 37.8076C4.16279 38.7118 4.63945 39.6545 5.23959 40.5122C6.6948 42.5902 8.10088 44.7172 9.72206 46.661C11.7363 49.0775 13.9855 51.2922 16.5918 53.0966C17.8372 53.9583 19.0588 54.8705 20.3719 55.6193C22.8614 57.0374 25.5315 57.988 28.3556 58.5576C30.0525 58.9002 31.7441 58.9055 33.4502 58.9334C35.4936 58.9666 37.5065 58.6585 39.4317 58.0664C41.5282 57.4211 43.5902 56.6058 45.5725 55.6658C47.8377 54.5917 49.9063 53.1617 51.9165 51.6467C54.5375 49.6724 56.9659 47.4909 59.247 45.1394C60.1206 44.2392 60.9677 43.3151 61.8281 42.4016C61.8865 42.4255 61.945 42.4494 62.0034 42.4733Z" fill="#7FAA3E"/>
<path id="Vector_3" d="M10.4798 12.0028C9.60215 14.7393 8.99404 17.331 8.57315 19.9799C8.10977 22.8969 7.94645 25.826 8.08852 28.7589C8.25051 32.1049 8.92102 35.3671 10.1917 38.4887C11.5513 41.8293 13.6372 44.6587 16.3046 47.05C17.8674 48.4507 19.6359 49.5727 21.5014 50.5526C23.4412 51.5709 25.4594 52.3822 27.5626 52.9465C29.3935 53.4378 31.2564 53.8454 33.1285 54.1322C35.2343 54.4535 37.364 54.6407 39.4897 54.804C41.0219 54.9222 42.5661 54.9062 44.105 54.9487C44.3373 54.9554 44.571 54.9487 44.8047 54.9487C44.8113 55.0218 44.8193 55.0934 44.8259 55.1665C42.987 55.4041 41.1547 55.7241 39.3091 55.8556C37.3135 55.999 35.2993 56.08 33.3051 55.9751C31.5378 55.8821 29.7719 55.5701 28.0313 55.2222C26.5123 54.9182 25.008 54.4986 23.5395 54.006C21.2066 53.224 19.0809 52.029 17.0482 50.6322C15.3407 49.4598 13.7899 48.1241 12.494 46.5375C11.2778 45.0491 10.1691 43.4597 9.14939 41.8293C7.74198 39.5787 7.2308 37.0069 6.71696 34.4364C6.16595 31.6826 5.85791 28.9103 5.95882 26.1114C6.05309 23.5064 6.44477 20.9372 7.21752 18.4304C7.87343 16.3034 8.8533 14.3423 10.0616 12.4861C10.1425 12.3613 10.2581 12.2564 10.4785 12.0015L10.4798 12.0028Z" fill="#7FAA3E"/>
<path id="Vector_4" d="M27.9701 49.3908C27.2133 49.0058 26.4233 48.6712 25.705 48.2251C24.0812 47.2173 22.3962 46.2733 20.9105 45.085C18.737 43.3456 16.6073 41.5054 15.0047 39.1991C13.9491 37.6801 12.9852 36.0629 12.2337 34.3767C11.6561 33.0808 11.3972 31.6216 11.1423 30.2089C10.9338 29.0551 10.9033 27.8641 10.8621 26.6864C10.817 25.3785 10.7439 24.0574 10.8794 22.7629C11.048 21.155 11.3852 19.5604 11.7066 17.9724C12.1075 15.9914 12.9281 14.1604 13.9173 12.4131C14.7591 10.9247 15.804 9.59829 17.0786 8.42456C18.1382 7.44867 19.2548 6.59891 20.4617 5.81288C21.8333 4.91931 23.2633 4.22357 24.8127 3.73098C25.709 3.44551 26.5946 3.12287 27.4842 2.81616L27.5492 2.97018C26.9146 3.36983 26.2427 3.72036 25.6532 4.17843C24.3799 5.16494 23.1053 6.1581 21.9156 7.24021C20.8919 8.17229 19.9333 9.18934 19.041 10.2489C18.1939 11.2553 17.3827 12.3149 16.7122 13.4448C15.9115 14.7938 15.16 16.1972 14.6037 17.6604C13.9717 19.324 13.3915 21.0315 13.3662 22.8585C13.345 24.3535 13.2056 25.8499 13.2587 27.341C13.3198 29.0524 13.6716 30.7187 14.1722 32.3744C14.6316 33.8907 15.0844 35.4017 15.9049 36.7494C16.7732 38.1767 17.7372 39.5509 18.733 40.8933C19.438 41.8439 20.2121 42.7548 21.0499 43.5899C22.2223 44.7583 23.4385 45.8909 24.7158 46.9438C25.7568 47.8028 26.9132 48.5212 28.0193 49.3019C28.002 49.3311 27.9861 49.3603 27.9688 49.3895L27.9701 49.3908Z" fill="#7FAA3E"/>
<path id="Vector_5" d="M52.6798 8.1285C51.846 7.73947 51.0374 7.27608 50.1717 6.98C49.1361 6.62549 48.0553 6.39977 46.9865 6.14484C44.57 5.56993 42.1123 5.36546 39.6387 5.48894C37.8463 5.5779 36.1096 5.87398 34.4087 6.59362C32.0825 7.57748 29.8161 8.6357 27.7647 10.1082C25.3668 11.8303 23.2875 13.8285 21.673 16.3685C20.2603 18.5925 19.3189 20.9505 18.7214 23.4693C18.5116 24.3509 18.4957 25.2816 18.4174 26.1925C18.3523 26.9559 18.2328 27.73 18.2979 28.4842C18.4665 30.4306 18.7148 32.3718 18.9578 34.3116C18.9936 34.5971 19.1742 34.8653 19.2884 35.1415C19.2193 35.172 19.1503 35.2012 19.0826 35.2318C18.7719 34.5042 18.3935 33.7965 18.1664 33.0436C17.638 31.2937 17.0485 29.5437 16.7364 27.7499C16.4496 26.1035 16.5572 24.4199 16.7643 22.7271C17.0272 20.5814 17.8132 18.6336 18.574 16.6686C18.8807 15.8772 19.4026 15.1563 19.8978 14.4525C20.5962 13.4594 21.3079 12.4689 22.1058 11.5567C23.3845 10.0962 24.849 8.82158 26.4688 7.74876C28.2998 6.53653 30.1825 5.3867 32.275 4.68698C34.0104 4.10675 35.7564 3.49732 37.6272 3.48935C39.1342 3.48271 40.6505 3.39243 42.1468 3.51989C43.2489 3.61416 44.3482 3.93149 45.4091 4.27272C46.7302 4.69627 48.042 5.17957 49.2994 5.76113C50.3417 6.2431 51.3083 6.89237 52.2921 7.49649C52.486 7.61466 52.6028 7.85896 52.7542 8.04618C52.729 8.07406 52.7024 8.10194 52.6772 8.13115L52.6798 8.1285Z" fill="#7FAA3E"/>
</g>
</svg>
