<svg width="719" height="535" viewBox="0 0 719 535" fill="none" xmlns="http://www.w3.org/2000/svg">
<path d="M471.189 89.2275C475.577 89.5793 479.062 89.7136 482.497 90.2189C483.386 90.3532 484.806 91.6515 484.799 92.3998C484.748 97.9002 485.222 103.599 483.949 108.856C481.902 117.299 479.414 125.811 475.673 133.601C472.187 140.854 466.898 147.25 462.254 153.927C457.163 161.244 450.192 166.764 442.543 170.812C432.169 176.306 421.2 178.231 410.046 171.663C405.044 168.721 399.224 168.062 393.736 170.684C387.398 173.716 380.721 176.466 375.182 180.642C368.844 185.426 369.151 191.611 375.342 196.587C380.734 200.917 386.727 204.499 392.496 208.355C395.361 210.274 398.322 208.905 401.149 208.234C412.681 205.496 421.123 211.054 422.939 222.682C424.436 232.276 416.576 240.462 407.411 240.987C398.763 241.479 390.929 236.087 389.163 226.366C388.939 225.131 388.703 223.667 389.138 222.573C391.248 217.265 388.345 213.849 384.821 210.76C381.335 207.697 377.785 204.665 373.98 202.023C371.812 200.52 369.17 199.465 366.586 198.864C363.766 198.212 361.873 200.642 360.856 205.228C359.474 211.464 360.721 217.52 362.288 223.481C363.049 226.385 365.486 227.952 368.377 228.783C373.75 230.325 378.348 233.548 381.06 238.108C384.718 244.255 386.426 251.233 384.546 258.588C381.975 268.661 375.643 275.639 365.633 277.615C354.741 279.771 344.412 276.496 337.837 264.907C333.315 256.944 333.443 248.834 337.37 240.878C339.897 235.761 344.067 231.892 349.324 229.449C351.492 228.444 352.663 227.037 353.392 224.69C355.586 217.591 355.988 210.396 354.377 203.258C353.846 200.898 351.889 198.064 349.81 197.06C347.149 195.775 344.188 197.329 341.847 199.529C338.688 202.503 336.213 205.432 336.488 210.338C336.705 214.31 333.744 216.932 329.708 217.834C326.881 218.467 321.618 216.292 320.249 213.932C318.874 211.572 318.887 205.221 320.856 203.731C322.82 202.241 325.532 200.668 327.796 200.834C334.492 201.32 339.302 198.819 343.363 193.715C346.97 189.181 346.241 185.337 340.632 183.923C334.39 182.35 328.007 181.269 321.643 180.246C316.271 179.389 310.853 178.762 305.43 178.34C301.554 178.039 298.51 179.555 295.427 182.344C290.054 187.217 282.047 186.68 276.572 180.93C270.483 174.541 271.289 165.791 277.576 160.572C284.701 154.669 295.152 156.07 299.399 165.337C301.042 168.925 303.345 170.582 306.894 171.375C316.028 173.402 325.097 175.724 334.275 177.515C338.138 178.27 342.154 177.355 345.109 174.502C348.192 171.535 347.642 167.371 346.567 163.975C345.212 159.703 343.165 155.411 340.402 151.932C338.918 150.058 335.375 149.258 332.663 149.002C319.142 147.711 308.474 135.36 308.372 121.968C308.289 111.632 316.897 98.5909 328.359 95.6681C341.214 92.387 351.16 96.992 357.082 104.75C364.891 114.971 366.036 129.048 356.315 139.575C351.812 144.449 350.782 149.879 351.454 155.814C352.093 161.468 353.443 167 357.025 171.81C360.913 177.029 366.925 177.7 371.53 174.227C376.436 170.524 381.085 166.341 385.23 161.807C389.899 156.697 391.811 150.665 390.615 143.323C389.298 135.252 390.724 127.449 395.508 120.228C402.953 109.003 414.011 103.068 425.965 98.6037C434.004 95.6041 442.408 93.3976 450.819 91.6451C457.777 90.1933 464.979 89.9183 471.202 89.2211L471.189 89.2275Z" fill="#EFF6B6"/>
<path d="M136.396 422.633C146.239 425.697 148.03 433.128 148.113 441.539C148.158 446.329 148.19 451.12 148.113 455.904C147.921 467.109 141.09 473.275 131.375 474.599C123.566 475.66 115.61 475.903 107.711 475.948C81.9486 476.108 56.1928 476.006 30.4306 476.006H26.8618V371.863H30.1876C59.25 371.863 88.3124 371.716 117.368 371.991C123.137 372.049 129.066 373.142 134.599 374.831C141.896 377.057 145.977 382.864 146.655 390.315C147.243 396.743 147.198 403.318 146.61 409.745C146.066 415.694 142.715 420.247 136.409 422.627L136.396 422.633ZM49.8674 456.697C51.7221 456.959 53.5513 457.458 55.3869 457.445C76.5186 457.292 97.6438 457.132 118.769 456.78C123.419 456.703 127.02 453.825 126.444 448.856C126.137 446.214 126.201 443.496 126.425 440.842C127.013 433.985 122.421 431.9 117.445 431.907C99.4666 431.952 81.4881 431.926 63.5032 431.926H49.861V456.697H49.8674ZM49.9121 414.357C50.2255 414.485 50.4174 414.619 50.6029 414.619C73.3655 414.645 96.128 414.709 118.884 414.619C121.737 414.606 125.306 411.786 125.139 408.121C124.986 404.616 125.158 401.105 125.069 397.594C125.05 396.717 124.679 395.803 124.276 395.003C122.485 391.441 119.031 391.095 115.712 391.083C94.6506 390.999 73.5893 391.038 52.5344 391.038H49.9057V414.357H49.9121Z" fill="#EFF6B6"/>
<path d="M350.008 438.028V475.846H327.291V371.87H330.661C357.926 371.87 385.192 371.697 412.45 371.972C420.874 372.055 429.508 372.624 437.221 376.551C443.284 379.641 447.16 385.115 448.305 391.69C450.07 401.84 450.633 412.106 447.915 422.3C445.581 431.05 439.748 436 431.331 438.303C420.183 441.347 408.76 440.912 397.376 440.874C395.399 440.867 393.417 440.874 391.248 441.494C410.653 452.751 430.058 464.014 450.224 475.712C448.612 475.865 447.851 475.999 447.09 475.999C436.441 476.012 425.786 475.897 415.143 476.076C411.888 476.134 409.24 475.098 406.611 473.46C390.519 463.425 374.402 453.429 358.31 443.406C355.688 441.776 353.123 440.049 350.015 438.028H350.008ZM350.194 422.62C350.539 422.806 350.629 422.895 350.718 422.895C372.311 422.927 393.909 423.036 415.501 422.921C421.353 422.889 425.178 420.094 425.805 415.035C426.432 410.014 426.31 404.834 425.888 399.774C425.575 396.065 422.805 393.59 419.313 392.502C417.151 391.831 414.759 391.709 412.47 391.703C392.899 391.645 373.321 391.671 353.744 391.671H350.2V422.614L350.194 422.62Z" fill="#EFF6B6"/>
<path d="M670.219 366.913H692.585V370.284C692.585 395.291 692.681 420.292 692.515 445.3C692.477 451.235 691.421 457.081 688.55 462.517C685.058 469.13 679.289 472.347 672.426 474.081C664.06 476.198 655.516 476.178 646.971 475.999C632.83 475.712 618.567 477.285 604.599 474.029C594.225 471.612 588.27 465.657 585.878 455.258C583.301 444.059 584.65 432.668 584.753 421.379C584.817 414.21 586.799 407.136 592.3 401.834C597.308 397.012 603.697 395.176 610.374 394.261C613.284 393.858 616.239 393.641 619.175 393.622C628.756 393.545 638.33 393.66 647.911 393.571C655.202 393.5 662.487 393.219 669.778 393.033C669.925 385.838 670.079 378.636 670.213 371.441C670.239 369.983 670.213 368.525 670.213 366.913H670.219ZM670.213 412.764C665.128 412.764 660.453 412.707 655.791 412.777C643.274 412.956 630.757 413.046 618.247 413.468C612.152 413.679 608.372 416.659 607.777 422.256C607.023 429.387 606.972 436.621 607.093 443.803C607.138 446.489 607.969 449.508 609.415 451.759C612.318 456.294 617.512 456.627 622.219 456.754C633.066 457.042 643.933 456.921 654.786 456.793C657.466 456.761 660.216 456.352 662.794 455.629C669.1 453.857 669.887 448.28 670.098 443.138C670.501 433.167 670.219 423.17 670.219 412.758L670.213 412.764Z" fill="#EFF6B6"/>
<path d="M256.803 393.596C264.043 393.596 271.289 393.392 278.523 393.66C284.573 393.884 290.508 394.92 296.124 397.536C303.908 401.169 308.18 407.488 309.031 415.642C310.022 425.076 310.47 434.625 310.265 444.104C310.144 449.63 308.935 455.347 307.074 460.573C303.85 469.648 295.99 473.288 287.157 474.675C270.291 477.33 253.266 475.814 236.317 475.878C229.48 475.903 222.636 474.541 216.394 471.183C210.024 467.755 206.526 462.287 205.029 455.463C202.509 443.937 203.615 432.214 203.929 420.618C204.121 413.346 206.27 406.189 212.403 401.003C217.386 396.788 223.25 394.696 229.474 394.364C238.562 393.871 247.695 394.236 256.803 394.236C256.803 394.025 256.803 393.807 256.803 393.596ZM256.707 457.145C263.25 456.831 269.69 456.441 276.144 456.224C283.102 455.993 287.362 451.005 287.419 444.679C287.477 438.296 287.547 431.907 287.394 425.524C287.279 420.484 285.443 416.224 280.339 414.376C277.928 413.506 275.28 412.835 272.741 412.841C260.755 412.886 248.744 412.745 236.803 413.577C229.998 414.056 227.408 417.241 226.851 422.512C226.122 429.432 225.713 436.499 226.237 443.419C226.845 451.478 228.617 455.296 238.095 456.153C244.305 456.716 250.554 456.825 256.713 457.132L256.707 457.145Z" fill="#EFF6B6"/>
<path d="M569.563 442.793C542.649 442.793 516.65 442.793 490.658 442.793C488.944 442.793 487.223 442.761 485.522 442.933C485.074 442.978 484.352 443.714 484.345 444.148C484.243 448.645 483.341 453.576 487.735 456.62C489.628 457.931 492.314 458.616 494.655 458.667C504.441 458.884 514.233 458.763 524.274 458.763V476.012H517.111C508.912 476.012 500.687 476.409 492.526 475.903C483.642 475.353 474.841 473.934 468.318 466.777C464.429 462.511 462.389 457.324 462.005 451.766C461.41 443.215 461.186 434.606 461.372 426.036C461.493 420.631 462.274 415.163 463.431 409.873C465.068 402.416 473.818 395.822 481.755 394.831C503.034 392.17 524.389 394.038 545.7 393.756C552.224 393.673 558.875 395.668 563.627 400.644C565.892 403.011 568.124 406.426 568.367 409.522C569.236 420.567 569.243 431.683 569.575 442.786L569.563 442.793ZM514.93 428.735C524.293 428.735 533.657 428.658 543.02 428.786C545.566 428.824 546.474 428.012 546.282 425.486C546.097 423.055 546.205 420.593 546.25 418.15C546.365 411.632 543.788 411.037 539.189 410.948C524.511 410.673 509.807 410.443 495.148 411.018C488.061 411.293 485.963 412.054 484.371 419.755C483.994 421.591 484.403 423.58 484.224 425.479C483.987 427.999 484.921 428.824 487.473 428.786C496.619 428.651 505.771 428.735 514.924 428.735H514.93Z" fill="#EFF6B6"/>
<path d="M468.004 236.388C466.041 240.475 464.179 244.619 462.088 248.642C456.703 259.016 450 268.565 442.268 277.257C434.765 285.687 426.802 293.809 417.177 299.949C410.73 304.055 404.398 308.5 397.516 311.724C389.765 315.357 381.552 318.094 373.372 320.691C355.451 326.383 336.871 325.609 318.458 325.072C308.5 324.784 298.689 322.648 288.986 319.802C275.625 315.887 263.512 309.754 251.884 302.322C240.737 295.191 231.239 286.16 222.457 276.432C213.586 266.595 206.097 255.646 200.085 243.82C195.326 234.45 191.137 224.792 186.711 215.256C186.545 214.905 186.526 214.482 186.814 213.913C189.385 218.269 191.681 222.81 194.572 226.941C201.582 236.951 208.355 247.197 216.164 256.56C225.866 268.201 236.701 278.869 249.256 287.561C255.255 291.711 261.139 296.105 267.464 299.713C279.457 306.543 292.318 311.123 305.922 313.866C314.096 315.517 322.244 315.542 330.463 315.676C340.306 315.836 350.002 314.353 359.276 311.5C369.375 308.392 379.307 304.465 388.856 299.936C399.768 294.762 409.732 287.874 419.415 280.576C432.041 271.066 443.739 260.558 454.726 249.231C458.935 244.894 463.015 240.443 467.16 236.043C467.441 236.158 467.723 236.273 468.004 236.388Z" fill="#EFF6B6"/>
<path d="M219.816 89.6113C215.588 102.793 212.659 115.278 210.632 128.037C208.399 142.089 207.613 156.198 208.297 170.326C209.077 186.443 212.307 202.158 218.428 217.194C224.977 233.286 235.025 246.915 247.874 258.434C255.402 265.182 263.921 270.586 272.907 275.306C282.252 280.212 291.973 284.12 302.104 286.838C310.924 289.204 319.897 291.168 328.915 292.549C339.059 294.097 349.318 294.999 359.557 295.786C366.938 296.355 374.376 296.278 381.789 296.483C382.908 296.515 384.034 296.483 385.16 296.483C385.192 296.834 385.23 297.18 385.262 297.532C376.404 298.676 367.578 300.218 358.687 300.851C349.075 301.542 339.372 301.932 329.766 301.427C321.253 300.979 312.747 299.476 304.362 297.8C297.045 296.336 289.799 294.314 282.725 291.942C271.487 288.175 261.248 282.418 251.456 275.69C243.231 270.043 235.761 263.608 229.518 255.965C223.66 248.796 218.319 241.14 213.407 233.286C206.628 222.445 204.166 210.057 201.69 197.674C199.036 184.409 197.552 171.055 198.038 157.573C198.492 145.024 200.379 132.648 204.102 120.573C207.261 110.327 211.981 100.881 217.801 91.9393C218.191 91.3381 218.748 90.8328 219.81 89.6049L219.816 89.6113Z" fill="#EFF6B6"/>
<path d="M304.068 269.71C300.422 267.855 296.616 266.243 293.156 264.094C285.334 259.24 277.218 254.693 270.061 248.968C259.591 240.59 249.332 231.725 241.613 220.616C236.528 213.299 231.885 205.509 228.265 197.387C225.483 191.144 224.235 184.115 223.007 177.31C222.003 171.752 221.856 166.015 221.658 160.342C221.441 154.042 221.089 147.679 221.741 141.443C222.553 133.697 224.178 126.016 225.726 118.367C227.657 108.824 231.61 100.004 236.375 91.5875C240.43 84.4179 245.463 78.0285 251.603 72.3746C256.707 67.6737 262.086 63.5804 267.899 59.7941C274.506 55.4898 281.395 52.1384 288.858 49.7655C293.176 48.3905 297.442 46.8363 301.727 45.3589L302.04 46.1008C298.983 48.0259 295.747 49.7144 292.907 51.9209C286.773 56.673 280.633 61.457 274.903 66.6696C269.972 71.1594 265.354 76.0586 261.056 81.1624C256.975 86.0104 253.068 91.1143 249.838 96.5571C245.981 103.055 242.361 109.816 239.681 116.864C236.637 124.878 233.842 133.103 233.72 141.903C233.618 149.105 232.946 156.313 233.202 163.495C233.497 171.739 235.191 179.766 237.603 187.742C239.816 195.046 241.997 202.324 245.949 208.816C250.132 215.691 254.775 222.311 259.572 228.777C262.968 233.356 266.697 237.744 270.733 241.767C276.38 247.395 282.239 252.851 288.392 257.923C293.406 262.061 298.977 265.521 304.304 269.281C304.221 269.422 304.144 269.563 304.061 269.704L304.068 269.71Z" fill="#EFF6B6"/>
<path d="M423.093 70.9484C419.076 69.0744 415.181 66.8423 411.011 65.416C406.023 63.7083 400.816 62.6211 395.668 61.3931C384.028 58.6237 372.189 57.6388 360.274 58.2336C351.639 58.6621 343.274 60.0883 335.081 63.5548C323.875 68.2941 312.958 73.3916 303.076 80.4845C291.525 88.7798 281.51 98.4054 273.732 110.641C266.927 121.353 262.393 132.712 259.515 144.845C258.504 149.092 258.427 153.575 258.05 157.963C257.737 161.64 257.161 165.369 257.474 169.002C258.287 178.378 259.483 187.729 260.653 197.073C260.826 198.448 261.695 199.74 262.246 201.07C261.913 201.218 261.58 201.358 261.254 201.505C259.758 198 257.935 194.592 256.841 190.965C254.296 182.535 251.456 174.106 249.953 165.465C248.571 157.534 249.089 149.425 250.087 141.27C251.354 130.934 255.14 121.552 258.805 112.086C260.282 108.274 262.796 104.801 265.181 101.411C268.545 96.6274 271.974 91.8562 275.817 87.4623C281.977 80.4269 289.031 74.287 296.834 69.1192C305.654 63.2798 314.723 57.7411 324.803 54.3705C333.162 51.5756 341.572 48.6399 350.584 48.6015C357.843 48.5695 365.147 48.1346 372.355 48.7486C377.664 49.2027 382.959 50.7313 388.07 52.375C394.433 54.4153 400.753 56.7433 406.809 59.5447C411.83 61.8664 416.486 64.9939 421.225 67.904C422.159 68.4732 422.722 69.65 423.451 70.5518C423.33 70.6861 423.202 70.8204 423.08 70.9612L423.093 70.9484Z" fill="#EFF6B6"/>
<path d="M163.277 395.649H186.289V475.756H163.277V395.649Z" fill="#EFF6B6"/>
<path d="M163.456 377.268C163.456 375.144 163.405 373.021 163.469 370.898C163.546 368.397 165.241 366.433 167.287 366.325C172.308 366.05 177.367 366.593 182.413 366.657C184.55 366.683 185.605 368.051 185.739 369.638C186.136 374.307 186.424 379.02 186.225 383.696C186.085 386.989 183.469 388.364 180.38 388.454C176.35 388.569 172.308 388.544 168.279 388.454C166.002 388.409 163.565 385.915 163.476 383.632C163.392 381.515 163.456 379.385 163.456 377.261V377.268Z" fill="#EFF6B6"/>
</svg>
