<svg width="19" height="20" viewBox="0 0 19 20" fill="none" xmlns="http://www.w3.org/2000/svg">
<path id="Vector" d="M7.69751 4.91289C7.45021 2.06829 4.48262 0.672539 4.35703 0.61557C4.23962 0.560379 4.10805 0.542746 3.98025 0.565074C0.55431 1.13347 0.0389948 3.12741 0.0182786 3.21027C-0.00990668 3.32575 -0.00542381 3.44679 0.0312262 3.55986C4.1175 16.2382 12.6098 18.5882 15.4013 19.3611C15.6163 19.4207 15.7937 19.4686 15.9283 19.5126C16.082 19.5628 16.2489 19.5531 16.3957 19.4854C16.4812 19.4466 18.4984 18.4962 18.9917 15.3966C19.0136 15.2613 18.9918 15.1225 18.9296 15.0004C18.8856 14.9149 17.8303 12.9067 14.9042 12.1972C14.8049 12.1718 14.7009 12.1709 14.6013 12.1946C14.5016 12.2183 14.4091 12.2658 14.3319 12.3332C13.4087 13.1217 12.1334 13.962 11.5831 14.0487C7.89432 12.2451 5.83435 8.78422 5.75666 8.12778C5.71135 7.75877 6.55683 6.46272 7.52919 5.40878C7.59031 5.34245 7.63686 5.26406 7.66585 5.17865C7.69484 5.09324 7.70562 5.00271 7.69751 4.91289Z" fill="white"/>
</svg>
