<svg width="20" height="17" viewBox="0 0 20 17" fill="none" xmlns="http://www.w3.org/2000/svg">
<g id="Layer 2">
<path id="email" d="M16.9999 0.555664H2.99988C2.20423 0.555664 1.44117 0.871735 0.878558 1.43434C0.315949 1.99695 -0.00012207 2.76001 -0.00012207 3.55566V13.5557C-0.00012207 14.3513 0.315949 15.1144 0.878558 15.677C1.44117 16.2396 2.20423 16.5557 2.99988 16.5557H16.9999C17.7955 16.5557 18.5586 16.2396 19.1212 15.677C19.6838 15.1144 19.9999 14.3513 19.9999 13.5557V3.55566C19.9999 2.76001 19.6838 1.99695 19.1212 1.43434C18.5586 0.871735 17.7955 0.555664 16.9999 0.555664ZM16.3299 2.55566L9.99988 7.30566L3.66988 2.55566H16.3299ZM16.9999 14.5557H2.99988C2.73466 14.5557 2.48031 14.4503 2.29277 14.2628C2.10523 14.0752 1.99988 13.8209 1.99988 13.5557V3.80566L9.39988 9.35566C9.57297 9.48549 9.78351 9.55566 9.99988 9.55566C10.2162 9.55566 10.4268 9.48549 10.5999 9.35566L17.9999 3.80566V13.5557C17.9999 13.8209 17.8945 14.0752 17.707 14.2628C17.5194 14.4503 17.2651 14.5557 16.9999 14.5557Z" fill="white"/>
</g>
</svg>
