<svg width="17" height="21" viewBox="0 0 17 21" fill="none" xmlns="http://www.w3.org/2000/svg">
<path id="Vector" d="M8.5 0.555664C6.379 0.558046 4.34555 1.40169 2.84578 2.9015C1.346 4.40132 0.502382 6.43482 0.5 8.55587C0.5 11.811 2.863 14.514 5.366 17.3751C6.158 18.2811 6.978 19.2181 7.708 20.1662C7.80142 20.2874 7.9214 20.3855 8.05871 20.453C8.19602 20.5205 8.34699 20.5557 8.5 20.5557C8.65301 20.5557 8.80398 20.5205 8.94129 20.453C9.0786 20.3855 9.19858 20.2874 9.292 20.1662C10.022 19.2181 10.842 18.2811 11.634 17.3751C14.137 14.514 16.5 11.811 16.5 8.55587C16.4976 6.43482 15.654 4.40132 14.1542 2.9015C12.6544 1.40169 10.621 0.558046 8.5 0.555664ZM8.5 11.556C7.90666 11.556 7.32664 11.38 6.83329 11.0503C6.33994 10.7207 5.95542 10.2521 5.72836 9.70395C5.5013 9.15576 5.44189 8.55254 5.55764 7.97059C5.6734 7.38863 5.95912 6.85406 6.37868 6.4345C6.79824 6.01493 7.33279 5.7292 7.91473 5.61344C8.49667 5.49768 9.09987 5.55709 9.64805 5.78416C10.1962 6.01123 10.6648 6.39576 10.9944 6.88912C11.3241 7.38248 11.5 7.96251 11.5 8.55587C11.5 9.35154 11.1839 10.1146 10.6213 10.6772C10.0587 11.2399 9.29565 11.556 8.5 11.556Z" fill="white"/>
</svg>
