<svg width="40" height="40" viewBox="0 0 40 40" fill="none" xmlns="http://www.w3.org/2000/svg">
<g id="remove_red_eye">
<path id="Vector" d="M20 10.8333C26.3167 10.8333 31.95 14.3833 34.7 20C31.95 25.6167 26.3334 29.1667 20 29.1667C13.6667 29.1667 8.05002 25.6167 5.30002 20C8.05002 14.3833 13.6834 10.8333 20 10.8333ZM20 7.5C11.6667 7.5 4.55002 12.6833 1.66669 20C4.55002 27.3167 11.6667 32.5 20 32.5C28.3334 32.5 35.45 27.3167 38.3334 20C35.45 12.6833 28.3334 7.5 20 7.5ZM20 15.8333C22.3 15.8333 24.1667 17.7 24.1667 20C24.1667 22.3 22.3 24.1667 20 24.1667C17.7 24.1667 15.8334 22.3 15.8334 20C15.8334 17.7 17.7 15.8333 20 15.8333ZM20 12.5C15.8667 12.5 12.5 15.8667 12.5 20C12.5 24.1333 15.8667 27.5 20 27.5C24.1334 27.5 27.5 24.1333 27.5 20C27.5 15.8667 24.1334 12.5 20 12.5Z" fill="#7FAA3E"/>
</g>
</svg>
