<svg width="176" height="130" viewBox="0 0 176 130" fill="none" xmlns="http://www.w3.org/2000/svg">
<g id="biored-logos-01">
<path id="Vector" d="M115.535 21.7008C116.603 21.7863 117.452 21.819 118.289 21.9419C118.505 21.9745 118.851 22.2903 118.849 22.4723C118.837 23.81 118.952 25.196 118.642 26.4746C118.144 28.5278 117.538 30.5982 116.627 32.4928C115.778 34.2567 114.489 35.8122 113.359 37.4361C112.119 39.2156 110.421 40.558 108.558 41.5426C106.031 42.8788 103.36 43.347 100.643 41.7495C99.4251 41.0339 98.0076 40.8737 96.6711 41.5115C95.1274 42.2488 93.5012 42.9176 92.1522 43.9334C90.6086 45.0969 90.6833 46.601 92.1912 47.8112C93.5043 48.8643 94.9639 49.7354 96.3689 50.6733C97.0668 51.14 97.788 50.8071 98.4765 50.6438C101.285 49.978 103.341 51.3297 103.784 54.1576C104.148 56.4908 102.234 58.4819 100.001 58.6094C97.8954 58.7292 95.9873 57.4179 95.5574 55.0536C95.5028 54.7534 95.4452 54.3972 95.5511 54.1312C96.0652 52.8401 95.358 52.0095 94.4997 51.2582C93.6507 50.5131 92.7862 49.7758 91.8594 49.1334C91.3313 48.7678 90.688 48.5112 90.0587 48.365C89.3718 48.2063 88.9107 48.7974 88.663 49.9127C88.3266 51.4293 88.6303 52.9023 89.0119 54.3521C89.1973 55.0582 89.7908 55.4393 90.4949 55.6415C91.8033 56.0164 92.9233 56.8004 93.5838 57.9095C94.4748 59.4043 94.8907 61.1013 94.4327 62.8901C93.8065 65.34 92.2644 67.0371 89.8266 67.5177C87.1739 68.0419 84.6582 67.2455 83.0569 64.427C81.9556 62.4904 81.9868 60.518 82.9432 58.583C83.5585 57.3386 84.5741 56.3975 85.8545 55.8033C86.3826 55.5591 86.6676 55.2169 86.8452 54.646C87.3795 52.9194 87.4776 51.1695 87.0851 49.4336C86.9558 48.8596 86.4791 48.1705 85.9729 47.9263C85.3249 47.6137 84.6037 47.9917 84.0336 48.5267C83.2641 49.25 82.6613 49.9625 82.7282 51.1555C82.7812 52.1215 82.06 52.7592 81.0771 52.9785C80.3886 53.1325 79.1066 52.6037 78.7733 52.0297C78.4384 51.4557 78.4415 49.9111 78.9212 49.5487C79.3995 49.1863 80.0599 48.8036 80.6113 48.8441C82.2422 48.9623 83.4136 48.3541 84.4028 47.1128C85.2813 46.01 85.1037 45.0751 83.7376 44.7313C82.2173 44.3487 80.6627 44.0858 79.1128 43.8369C77.8044 43.6285 76.485 43.4761 75.1641 43.3734C74.2201 43.3003 73.4787 43.6689 72.7279 44.3471C71.4194 45.5324 69.4692 45.4018 68.1358 44.0034C66.6529 42.4494 66.8492 40.3215 68.3804 39.0523C70.1156 37.6165 72.6609 37.9572 73.6952 40.2111C74.0955 41.0837 74.6563 41.4866 75.5208 41.6795C77.7452 42.1726 79.954 42.7372 82.1893 43.1727C83.1301 43.3563 84.1083 43.1339 84.828 42.4401C85.5788 41.7184 85.4448 40.7057 85.1832 39.8798C84.8529 38.8407 84.3545 37.797 83.6815 36.9508C83.3202 36.495 82.4572 36.3006 81.7967 36.2384C78.5038 35.9242 75.9056 32.9205 75.8806 29.6633C75.8604 27.1497 77.957 23.978 80.7484 23.2672C83.8794 22.4692 86.3016 23.5891 87.744 25.4759C89.6459 27.9616 89.9248 31.3852 87.5571 33.9456C86.4605 35.1309 86.2097 36.4515 86.3732 37.895C86.529 39.27 86.8577 40.6155 87.73 41.7853C88.677 43.0545 90.1413 43.2179 91.2628 42.3732C92.4576 41.4726 93.59 40.4553 94.5994 39.3525C95.7365 38.1096 96.2022 36.6428 95.9109 34.8571C95.5901 32.8941 95.9374 30.9964 97.1026 29.2402C98.9157 26.5103 101.609 25.0669 104.52 23.9811C106.478 23.2516 108.525 22.715 110.573 22.2887C112.268 21.9357 114.022 21.8688 115.538 21.6992L115.535 21.7008Z" fill="white"/>
<path id="Vector_2" d="M33.996 102.787C36.3933 103.532 36.8294 105.339 36.8497 107.385C36.8606 108.55 36.8684 109.715 36.8497 110.878C36.8029 113.604 35.1393 115.103 32.7732 115.425C30.8713 115.683 28.9335 115.742 27.0098 115.753C20.7354 115.792 14.4626 115.767 8.18822 115.767H7.31903V90.4392H8.12903C15.2072 90.4392 22.2853 90.4035 29.3619 90.4704C30.7669 90.4844 32.2109 90.7503 33.5583 91.161C35.3356 91.7023 36.3294 93.1147 36.4945 94.9268C36.6378 96.4901 36.6269 98.0891 36.4836 99.6524C36.3512 101.099 35.535 102.207 33.9991 102.785L33.996 102.787ZM12.922 111.071C13.3738 111.135 13.8193 111.256 14.2663 111.253C19.4129 111.216 24.558 111.177 29.703 111.091C30.8354 111.073 31.7124 110.373 31.5722 109.164C31.4975 108.522 31.513 107.861 31.5676 107.215C31.7109 105.548 30.5924 105.041 29.3806 105.042C25.0019 105.053 20.6232 105.047 16.243 105.047H12.9205V111.071H12.922ZM12.9329 100.774C13.0093 100.805 13.056 100.838 13.1012 100.838C18.645 100.844 24.1888 100.859 29.731 100.838C30.4258 100.835 31.295 100.149 31.2545 99.2573C31.2171 98.4049 31.2591 97.5509 31.2373 96.697C31.2327 96.4839 31.1423 96.2614 31.0442 96.067C30.608 95.2006 29.7669 95.1166 28.9584 95.1135C23.829 95.0933 18.6995 95.1026 13.5716 95.1026H12.9314V100.774H12.9329Z" fill="white"/>
<path id="Vector_3" d="M86.0212 106.531V115.728H80.4883V90.4407H81.3092C87.9496 90.4407 94.59 90.3988 101.229 90.4656C103.28 90.4859 105.383 90.6243 107.262 91.5794C108.739 92.3307 109.682 93.6622 109.961 95.2612C110.391 97.7298 110.528 100.226 109.866 102.706C109.298 104.834 107.877 106.038 105.827 106.598C103.112 107.338 100.33 107.232 97.5574 107.223C97.0761 107.221 96.5932 107.223 96.0652 107.374C100.791 110.111 105.517 112.851 110.429 115.696C110.036 115.733 109.851 115.766 109.665 115.766C107.072 115.769 104.477 115.741 101.885 115.784C101.092 115.798 100.447 115.546 99.8067 115.148C95.8876 112.708 91.9622 110.276 88.0431 107.839C87.4044 107.442 86.7798 107.022 86.0227 106.531H86.0212ZM86.0664 102.784C86.1505 102.829 86.1723 102.85 86.1941 102.85C91.4528 102.858 96.7132 102.885 101.972 102.857C103.397 102.849 104.329 102.169 104.481 100.939C104.634 99.7177 104.604 98.4577 104.502 97.2273C104.425 96.3252 103.751 95.7232 102.9 95.4588C102.374 95.2954 101.791 95.2659 101.234 95.2643C96.467 95.2503 91.699 95.2565 86.9309 95.2565H86.0679V102.782L86.0664 102.784Z" fill="white"/>
<path id="Vector_4" d="M164.008 89.2354H169.456V90.0551C169.456 96.1371 169.479 102.217 169.439 108.299C169.429 109.743 169.172 111.165 168.473 112.487C167.622 114.095 166.217 114.878 164.546 115.299C162.508 115.814 160.427 115.809 158.346 115.766C154.902 115.696 151.429 116.078 148.027 115.287C145.5 114.699 144.05 113.251 143.467 110.721C142.839 107.998 143.168 105.227 143.193 102.482C143.209 100.738 143.692 99.0178 145.031 97.7283C146.251 96.5555 147.807 96.1091 149.433 95.8866C150.142 95.7886 150.862 95.7357 151.577 95.7311C153.91 95.7124 156.242 95.7404 158.575 95.7186C160.351 95.7015 162.125 95.6331 163.901 95.588C163.937 93.838 163.974 92.0866 164.007 90.3366C164.013 89.982 164.007 89.6273 164.007 89.2354H164.008ZM164.007 100.387C162.769 100.387 161.63 100.373 160.494 100.39C157.446 100.433 154.397 100.455 151.351 100.558C149.866 100.609 148.946 101.334 148.801 102.695C148.617 104.429 148.604 106.189 148.634 107.935C148.645 108.589 148.847 109.323 149.199 109.87C149.907 110.973 151.172 111.054 152.318 111.085C154.96 111.155 157.606 111.126 160.25 111.095C160.902 111.087 161.572 110.987 162.2 110.812C163.736 110.381 163.927 109.024 163.979 107.774C164.077 105.349 164.008 102.917 164.008 100.385L164.007 100.387Z" fill="white"/>
<path id="Vector_5" d="M63.321 95.7252C65.0843 95.7252 66.8492 95.6754 68.6109 95.7407C70.0845 95.7952 71.5301 96.0472 72.8977 96.6834C74.7934 97.5669 75.8339 99.1037 76.0411 101.087C76.2826 103.381 76.3916 105.704 76.3418 108.009C76.3122 109.353 76.0177 110.743 75.5645 112.014C74.7794 114.221 72.865 115.107 70.7138 115.444C66.6062 116.09 62.4596 115.721 58.3318 115.737C56.6666 115.743 54.9999 115.411 53.4796 114.595C51.9281 113.761 51.076 112.431 50.7115 110.771C50.0978 107.968 50.3673 105.117 50.4436 102.297C50.4904 100.529 51.0137 98.7879 52.5076 97.5264C53.721 96.5014 55.1494 95.9927 56.665 95.9118C58.8785 95.7921 61.1029 95.8807 63.321 95.8807C63.321 95.8294 63.321 95.7765 63.321 95.7252ZM63.2977 111.181C64.8912 111.104 66.4598 111.009 68.0315 110.957C69.7262 110.901 70.7637 109.687 70.7777 108.149C70.7917 106.596 70.8088 105.043 70.7715 103.49C70.7434 102.264 70.2964 101.228 69.0533 100.779C68.4661 100.567 67.8212 100.404 67.2028 100.406C64.2837 100.417 61.3583 100.382 58.4501 100.585C56.7928 100.701 56.1619 101.476 56.0264 102.758C55.8488 104.441 55.7491 106.159 55.8768 107.842C56.0248 109.802 56.4563 110.731 58.7648 110.939C60.2773 111.076 61.7992 111.103 63.2992 111.177L63.2977 111.181Z" fill="white"/>
<path id="Vector_6" d="M139.494 107.689C132.939 107.689 126.607 107.689 120.276 107.689C119.859 107.689 119.44 107.682 119.025 107.724C118.916 107.735 118.74 107.913 118.739 108.019C118.714 109.113 118.494 110.312 119.564 111.052C120.026 111.371 120.68 111.538 121.25 111.55C123.633 111.603 126.018 111.573 128.464 111.573V115.769H126.719C124.722 115.769 122.719 115.865 120.731 115.742C118.568 115.608 116.424 115.263 114.835 113.523C113.888 112.485 113.391 111.224 113.298 109.872C113.153 107.792 113.098 105.698 113.144 103.614C113.173 102.3 113.363 100.97 113.645 99.6833C114.044 97.8696 116.175 96.2659 118.108 96.0248C123.29 95.3778 128.492 95.832 133.682 95.7635C135.271 95.7433 136.891 96.2286 138.048 97.4388C138.599 98.0143 139.143 98.8449 139.202 99.5978C139.414 102.284 139.416 104.988 139.497 107.688L139.494 107.689ZM126.188 104.27C128.468 104.27 130.749 104.252 133.029 104.283C133.649 104.292 133.87 104.095 133.824 103.48C133.778 102.889 133.805 102.29 133.816 101.696C133.844 100.111 133.216 99.9665 132.096 99.9447C128.521 99.8778 124.94 99.8218 121.37 99.9618C119.644 100.029 119.133 100.214 118.745 102.087C118.653 102.533 118.753 103.017 118.709 103.479C118.652 104.092 118.879 104.292 119.501 104.283C121.728 104.25 123.957 104.27 126.186 104.27H126.188Z" fill="white"/>
<path id="Vector_7" d="M114.759 57.4904C114.281 58.4844 113.827 59.4923 113.318 60.4707C112.007 62.9937 110.374 65.3161 108.491 67.43C106.664 69.4801 104.724 71.4556 102.38 72.9489C100.81 73.9475 99.2678 75.0285 97.5917 75.8125C95.7038 76.696 93.7037 77.3618 91.7114 77.9933C87.3468 79.3777 82.8217 79.1895 78.3371 79.0588C75.9118 78.9888 73.5223 78.4693 71.1593 77.7771C67.9053 76.8251 64.955 75.3334 62.1231 73.5259C59.4081 71.7916 57.0949 69.5952 54.9562 67.2293C52.7957 64.837 50.9717 62.174 49.5074 59.2979C48.3485 57.0191 47.3282 54.6703 46.2503 52.3511C46.2098 52.2655 46.2051 52.1629 46.2752 52.0244C46.9014 53.0837 47.4606 54.1881 48.1647 55.1929C49.8719 57.6273 51.5215 60.1192 53.4235 62.3964C55.7865 65.2274 58.4252 67.822 61.4829 69.9359C62.9441 70.9454 64.3771 72.014 65.9177 72.8913C68.8383 74.5526 71.9709 75.6663 75.2841 76.3336C77.2748 76.7349 79.2593 76.7411 81.2609 76.7738C83.6582 76.8127 86.0196 76.4518 88.2783 75.7581C90.7379 75.0021 93.157 74.047 95.4826 72.9457C98.14 71.6873 100.567 70.0121 102.925 68.2373C106 65.9243 108.849 63.3686 111.525 60.6138C112.55 59.5592 113.544 58.4766 114.553 57.4064C114.622 57.4344 114.69 57.4624 114.759 57.4904Z" fill="white"/>
<path id="Vector_8" d="M54.3129 21.7935C53.2833 24.9994 52.5699 28.0357 52.0761 31.1389C51.5324 34.5563 51.3408 37.9877 51.5075 41.4238C51.6975 45.3437 52.4842 49.1655 53.9749 52.8224C55.57 56.736 58.0171 60.0508 61.1465 62.8522C62.9799 64.4933 65.0547 65.8077 67.2433 66.9556C69.5191 68.1487 71.8867 69.0991 74.3541 69.7602C76.5022 70.3357 78.6876 70.8132 80.8839 71.1492C83.3544 71.5256 85.853 71.745 88.3468 71.9363C90.1444 72.0747 91.956 72.0561 93.7614 72.1058C94.0339 72.1136 94.3081 72.1058 94.5823 72.1058C94.59 72.1914 94.5994 72.2754 94.6072 72.3609C92.4498 72.6394 90.3002 73.0142 88.135 73.1682C85.7938 73.3362 83.4308 73.4311 81.0911 73.3082C79.0178 73.1993 76.9461 72.8338 74.904 72.4263C73.122 72.0701 71.3571 71.5785 69.6343 71.0014C66.8975 70.0853 64.4036 68.6853 62.0188 67.0489C60.0156 65.6754 58.1962 64.1106 56.6759 62.2518C55.2491 60.5081 53.9484 58.6462 52.7521 56.7361C51.101 54.0995 50.5012 51.0865 49.8984 48.0751C49.252 44.849 48.8906 41.6011 49.009 38.3222C49.1196 35.2703 49.5791 32.2604 50.4857 29.3237C51.2552 26.8318 52.4047 24.5343 53.8222 22.3597C53.9173 22.2135 54.0528 22.0906 54.3113 21.792L54.3129 21.7935Z" fill="white"/>
<path id="Vector_9" d="M74.8323 65.5947C73.9445 65.1436 73.0176 64.7516 72.1749 64.229C70.2699 63.0484 68.2932 61.9424 66.5501 60.5502C64.0002 58.5125 61.5016 56.3566 59.6215 53.6548C58.3832 51.8753 57.2523 49.9807 56.3706 48.0052C55.693 46.4871 55.3893 44.7776 55.0902 43.1225C54.8456 41.7708 54.8098 40.3755 54.7615 38.9958C54.7086 37.4637 54.6229 35.916 54.7818 34.3994C54.9796 32.5157 55.3753 30.6475 55.7522 28.7872C56.2226 26.4664 57.1853 24.3213 58.3458 22.2743C59.3333 20.5306 60.5592 18.9767 62.0546 17.6016C63.2977 16.4584 64.6077 15.4628 66.0236 14.542C67.6327 13.4951 69.3103 12.6801 71.1282 12.103C72.1796 11.7686 73.2186 11.3906 74.2622 11.0312L74.3386 11.2117C73.594 11.6799 72.8058 12.0905 72.1142 12.6272C70.6204 13.7829 69.125 14.9464 67.7293 16.2141C66.5283 17.3061 65.4037 18.4976 64.3569 19.7389C63.3631 20.9179 62.4113 22.1592 61.6247 23.4829C60.6854 25.0633 59.8038 26.7075 59.1511 28.4216C58.4096 30.3706 57.7289 32.371 57.6993 34.5114C57.6744 36.2628 57.5108 38.0159 57.5732 39.7627C57.6448 41.7677 58.0576 43.7199 58.6448 45.6595C59.1838 47.4359 59.715 49.2061 60.6776 50.7849C61.6964 52.457 62.8272 54.067 63.9955 55.6396C64.8226 56.7533 65.7308 57.8204 66.7137 58.7988C68.0891 60.1676 69.516 61.4944 71.0144 62.7279C72.2357 63.7343 73.5924 64.5758 74.89 65.4905C74.8697 65.5247 74.851 65.5589 74.8308 65.5931L74.8323 65.5947Z" fill="white"/>
<path id="Vector_10" d="M103.821 17.2548C102.843 16.7991 101.894 16.2562 100.878 15.9093C99.6634 15.494 98.3955 15.2296 97.1415 14.9309C94.3065 14.2574 91.4233 14.0179 88.5213 14.1625C86.4184 14.2667 84.381 14.6136 82.3856 15.4567C79.6565 16.6093 76.9975 17.849 74.5909 19.5741C71.7777 21.5915 69.3384 23.9325 67.4442 26.9082C65.7868 29.5136 64.6824 32.2762 63.9815 35.227C63.7354 36.2598 63.7167 37.3502 63.6248 38.4173C63.5484 39.3117 63.4083 40.2185 63.4846 41.102C63.6824 43.3824 63.9737 45.6565 64.2587 47.9291C64.3008 48.2635 64.5127 48.5777 64.6466 48.9013C64.5656 48.937 64.4846 48.9713 64.4052 49.007C64.0407 48.1546 63.5967 47.3255 63.3304 46.4436C62.7104 44.3934 62.0188 42.3433 61.6527 40.2418C61.3163 38.313 61.4424 36.3407 61.6854 34.3574C61.9939 31.8438 62.916 29.5619 63.8086 27.2597C64.1684 26.3327 64.7806 25.488 65.3616 24.6636C66.1809 23.5001 67.0159 22.3397 67.952 21.2711C69.4521 19.5601 71.1702 18.0668 73.0706 16.81C75.2186 15.3898 77.4274 14.0427 79.8824 13.223C81.9183 12.5433 83.9666 11.8293 86.1614 11.82C87.9294 11.8122 89.7082 11.7064 91.4638 11.8557C92.7566 11.9662 94.0464 12.3379 95.291 12.7377C96.8409 13.2339 98.3799 13.8001 99.855 14.4814C101.078 15.046 102.212 15.8067 103.366 16.5144C103.593 16.6529 103.731 16.9391 103.908 17.1584C103.879 17.1911 103.847 17.2237 103.818 17.2579L103.821 17.2548Z" fill="white"/>
<path id="Vector_11" d="M40.543 96.2236H46.1475V115.706H40.543V96.2236Z" fill="white"/>
<path id="Vector_12" d="M40.5866 91.7534C40.5866 91.237 40.5741 90.7206 40.5897 90.2042C40.6084 89.596 41.0212 89.1185 41.5196 89.092C42.7424 89.0251 43.9745 89.1573 45.2035 89.1729C45.7238 89.1791 45.9808 89.512 46.0135 89.8978C46.1101 91.0333 46.1802 92.1797 46.1319 93.3167C46.0977 94.1178 45.4606 94.4522 44.7082 94.474C43.7269 94.502 42.7424 94.4958 41.7611 94.474C41.2065 94.4631 40.613 93.8565 40.5912 93.3012C40.571 92.7863 40.5866 92.2683 40.5866 91.7519V91.7534Z" fill="white"/>
</g>
</svg>
