<svg width="69" height="65" viewBox="0 0 69 65" fill="none" xmlns="http://www.w3.org/2000/svg">
<g id="biored-logos-03">
<path id="Vector" d="M62.6645 11.9244C63.5753 11.9974 64.2989 12.0253 65.0119 12.1302C65.1965 12.1581 65.4912 12.4276 65.4899 12.583C65.4793 13.7248 65.5775 14.9079 65.3133 15.9993C64.8884 17.7519 64.3719 19.5191 63.5952 21.1363C62.8716 22.642 61.7735 23.9697 60.8096 25.3559C59.7527 26.8748 58.3055 28.0207 56.7175 28.8611C54.5639 30.0017 52.2868 30.4013 49.9712 29.0377C48.9329 28.427 47.7247 28.2902 46.5854 28.8346C45.2697 29.4639 43.8835 30.0349 42.7337 30.9019C41.4179 31.895 41.4816 33.179 42.7669 34.212C43.8861 35.1108 45.1302 35.8544 46.3279 36.655C46.9227 37.0533 47.5374 36.7692 48.1243 36.6298C50.5182 36.0615 52.2709 37.2153 52.6479 39.6292C52.9586 41.6208 51.3268 43.3203 49.4242 43.4292C47.6291 43.5314 46.0026 42.4121 45.6361 40.3939C45.5896 40.1377 45.5405 39.8336 45.6308 39.6066C46.069 38.5046 45.4662 37.7955 44.7346 37.1542C44.011 36.5183 43.2741 35.8889 42.484 35.3405C42.0339 35.0285 41.4856 34.8095 40.9492 34.6846C40.3636 34.5492 39.9706 35.0538 39.7595 36.0057C39.4727 37.3003 39.7316 38.5577 40.0569 39.7951C40.2149 40.3979 40.7208 40.7232 41.3209 40.8958C42.4362 41.2158 43.3909 41.885 43.9539 42.8317C44.7133 44.1077 45.0678 45.5562 44.6775 47.0831C44.1437 49.1743 42.8293 50.6229 40.7513 51.0332C38.4902 51.4806 36.3459 50.8008 34.9809 48.3949C34.0422 46.7419 34.0688 45.0583 34.884 43.4066C35.4085 42.3444 36.2742 41.5411 37.3656 41.0339C37.8157 40.8255 38.0587 40.5334 38.21 40.0461C38.6654 38.5723 38.7491 37.0786 38.4145 35.5968C38.3043 35.1069 37.898 34.5187 37.4665 34.3102C36.9141 34.0433 36.2994 34.366 35.8134 34.8227C35.1575 35.4401 34.6437 36.0482 34.7008 37.0666C34.7459 37.8911 34.1312 38.4355 33.2934 38.6227C32.7065 38.7542 31.6138 38.3027 31.3296 37.8128C31.0442 37.3229 31.0468 36.0044 31.4558 35.6951C31.8634 35.3857 32.4264 35.0591 32.8964 35.0936C34.2865 35.1945 35.285 34.6753 36.1281 33.6158C36.877 32.6744 36.7256 31.8765 35.5612 31.583C34.2653 31.2564 32.9402 31.032 31.6191 30.8196C30.5038 30.6417 29.3792 30.5115 28.2533 30.4239C27.4486 30.3615 26.8166 30.6762 26.1767 31.2551C25.0614 32.2668 23.399 32.1553 22.2625 30.9616C20.9985 29.6352 21.1658 27.8189 22.4709 26.7354C23.95 25.5099 26.1196 25.8007 27.0012 27.7246C27.3424 28.4695 27.8204 28.8133 28.5573 28.978C30.4533 29.3989 32.3361 29.8809 34.2414 30.2526C35.0434 30.4093 35.8772 30.2194 36.4906 29.6273C37.1306 29.0112 37.0164 28.1468 36.7933 27.4418C36.5118 26.5549 36.087 25.6639 35.5134 24.9416C35.2053 24.5526 34.4698 24.3866 33.9068 24.3335C31.0999 24.0653 28.8853 21.5015 28.864 18.7212C28.8468 16.5755 30.6339 13.8682 33.0132 13.2615C35.682 12.5803 37.7466 13.5363 38.9761 15.1469C40.5973 17.2686 40.835 20.191 38.8168 22.3764C37.8821 23.3882 37.6683 24.5154 37.8077 25.7476C37.9405 26.9213 38.2206 28.0698 38.9642 29.0683C39.7715 30.1517 41.0195 30.2911 41.9755 29.5702C42.9939 28.8014 43.9592 27.9331 44.8195 26.9917C45.7888 25.9308 46.1858 24.6787 45.9375 23.1545C45.664 21.4789 45.9601 19.859 46.9532 18.36C48.4987 16.0298 50.7944 14.7977 53.276 13.8709C54.9449 13.2482 56.6896 12.7901 58.4356 12.4263C59.8802 12.1249 61.3752 12.0678 62.6671 11.9231L62.6645 11.9244Z" fill="#EFF6B6"/>
<path id="Vector_2" d="M62.0034 42.4733C61.5958 43.3217 61.2094 44.1821 60.7753 45.0173C59.6573 47.1709 58.2658 49.1532 56.6606 50.9576C55.1031 52.7076 53.4501 54.3938 51.4518 55.6685C50.1135 56.5209 48.799 57.4436 47.3703 58.1128C45.7611 58.867 44.0563 59.4353 42.3581 59.9743C38.6378 61.156 34.7807 60.9954 30.9581 60.8838C28.8908 60.8241 26.854 60.3806 24.8398 59.7898C22.0662 58.9772 19.5514 57.7039 17.1376 56.161C14.8233 54.6806 12.8516 52.8058 11.0286 50.7863C9.18703 48.7443 7.63224 46.4712 6.38416 44.0162C5.39631 42.071 4.52664 40.0661 3.60784 38.0864C3.57332 38.0134 3.56933 37.9258 3.62908 37.8076C4.16284 38.7118 4.6395 39.6545 5.23964 40.5122C6.69485 42.5902 8.10093 44.7172 9.72211 46.661C11.7363 49.0775 13.9855 51.2922 16.5919 53.0966C17.8373 53.9583 19.0588 54.8705 20.372 55.6193C22.8615 57.0374 25.5316 57.988 28.3557 58.5576C30.0526 58.9002 31.7441 58.9055 33.4503 58.9334C35.4937 58.9666 37.5065 58.6585 39.4318 58.0664C41.5283 57.4211 43.5903 56.6058 45.5726 55.6658C47.8377 54.5917 49.9063 53.1617 51.9165 51.6467C54.5375 49.6724 56.966 47.4909 59.247 45.1394C60.1207 44.2392 60.9678 43.3151 61.8282 42.4016C61.8866 42.4255 61.945 42.4494 62.0034 42.4733Z" fill="#EFF6B6"/>
<path id="Vector_3" d="M10.4797 12.0028C9.60211 14.7393 8.994 17.331 8.5731 19.9799C8.10972 22.8969 7.94641 25.826 8.08848 28.7589C8.25046 32.1049 8.92097 35.3671 10.1916 38.4887C11.5512 41.8293 13.6371 44.6587 16.3046 47.05C17.8673 48.4507 19.6359 49.5727 21.5014 50.5526C23.4412 51.5709 25.4594 52.3822 27.5625 52.9465C29.3935 53.4378 31.2563 53.8454 33.1284 54.1322C35.2342 54.4535 37.3639 54.6407 39.4897 54.804C41.0219 54.9222 42.5661 54.9062 44.1049 54.9487C44.3373 54.9554 44.5709 54.9487 44.8046 54.9487C44.8113 55.0218 44.8192 55.0934 44.8259 55.1665C42.9869 55.4041 41.1547 55.7241 39.3091 55.8556C37.3135 55.999 35.2993 56.08 33.305 55.9751C31.5378 55.8821 29.7719 55.5701 28.0312 55.2222C26.5123 54.9182 25.0079 54.4986 23.5395 54.006C21.2066 53.224 19.0809 52.029 17.0481 50.6322C15.3406 49.4598 13.7898 48.1241 12.4939 46.5375C11.2777 45.0491 10.1691 43.4597 9.14935 41.8293C7.74194 39.5787 7.23075 37.0069 6.71691 34.4364C6.1659 31.6826 5.85786 28.9103 5.95877 26.1114C6.05304 23.5064 6.44473 20.9372 7.21748 18.4304C7.87338 16.3034 8.85326 14.3423 10.0615 12.4861C10.1425 12.3613 10.258 12.2564 10.4784 12.0015L10.4797 12.0028Z" fill="#EFF6B6"/>
<path id="Vector_4" d="M27.9702 49.3908C27.2134 49.0058 26.4234 48.6712 25.7051 48.2251C24.0812 47.2173 22.3963 46.2733 20.9106 45.085C18.737 43.3456 16.6073 41.5054 15.0047 39.1991C13.9492 37.6801 12.9852 36.0629 12.2337 34.3767C11.6562 33.0808 11.3973 31.6216 11.1423 30.2089C10.9339 29.0551 10.9033 27.8641 10.8622 26.6864C10.817 25.3785 10.744 24.0574 10.8794 22.7629C11.0481 21.155 11.3853 19.5604 11.7066 17.9724C12.1076 15.9914 12.9282 14.1604 13.9173 12.4131C14.7591 10.9247 15.804 9.59829 17.0787 8.42456C18.1382 7.44867 19.2549 6.59891 20.4618 5.81288C21.8333 4.91931 23.2633 4.22357 24.8128 3.73098C25.709 3.44551 26.5946 3.12287 27.4842 2.81616L27.5493 2.97018C26.9146 3.36983 26.2428 3.72036 25.6533 4.17843C24.38 5.16494 23.1053 6.1581 21.9157 7.24021C20.892 8.17229 19.9333 9.18934 19.0411 10.2489C18.194 11.2553 17.3827 12.3149 16.7122 13.4448C15.9116 14.7938 15.1601 16.1972 14.6038 17.6604C13.9718 19.324 13.3915 21.0315 13.3663 22.8585C13.3451 24.3535 13.2057 25.8499 13.2588 27.341C13.3198 29.0524 13.6717 30.7187 14.1722 32.3744C14.6316 33.8907 15.0844 35.4017 15.905 36.7494C16.7733 38.1767 17.7372 39.5509 18.7331 40.8933C19.4381 41.8439 20.2122 42.7548 21.05 43.5899C22.2224 44.7583 23.4386 45.8909 24.7159 46.9438C25.7568 47.8028 26.9133 48.5212 28.0193 49.3019C28.0021 49.3311 27.9861 49.3603 27.9689 49.3895L27.9702 49.3908Z" fill="#EFF6B6"/>
<path id="Vector_5" d="M52.6798 8.1285C51.846 7.73947 51.0374 7.27608 50.1717 6.98C49.136 6.62549 48.0553 6.39977 46.9864 6.14484C44.5699 5.56993 42.1123 5.36546 39.6387 5.48894C37.8462 5.5779 36.1095 5.87398 34.4087 6.59362C32.0825 7.57748 29.816 8.6357 27.7647 10.1082C25.3667 11.8303 23.2875 13.8285 21.673 16.3685C20.2602 18.5925 19.3189 20.9505 18.7214 23.4693C18.5116 24.3509 18.4957 25.2816 18.4173 26.1925C18.3523 26.9559 18.2328 27.73 18.2978 28.4842C18.4664 30.4306 18.7147 32.3718 18.9577 34.3116C18.9936 34.5971 19.1741 34.8653 19.2883 35.1415C19.2193 35.172 19.1502 35.2012 19.0825 35.2318C18.7718 34.5042 18.3934 33.7965 18.1664 33.0436C17.6379 31.2937 17.0484 29.5437 16.7364 27.7499C16.4496 26.1035 16.5571 24.4199 16.7643 22.7271C17.0272 20.5814 17.8132 18.6336 18.574 16.6686C18.8807 15.8772 19.4025 15.1563 19.8978 14.4525C20.5961 13.4594 21.3078 12.4689 22.1058 11.5567C23.3844 10.0962 24.8489 8.82158 26.4688 7.74876C28.2997 6.53653 30.1825 5.3867 32.275 4.68698C34.0104 4.10675 35.7564 3.49732 37.6271 3.48935C39.1341 3.48271 40.6504 3.39243 42.1468 3.51989C43.2488 3.61416 44.3482 3.93149 45.4091 4.27272C46.7302 4.69627 48.042 5.17957 49.2994 5.76113C50.3416 6.2431 51.3082 6.89237 52.2921 7.49649C52.486 7.61466 52.6028 7.85896 52.7542 8.04618C52.7289 8.07406 52.7024 8.10194 52.6771 8.13115L52.6798 8.1285Z" fill="#EFF6B6"/>
</g>
</svg>
