<svg width="43" height="42" viewBox="0 0 43 42" fill="none" xmlns="http://www.w3.org/2000/svg">
<g id="Group 50">
<circle id="Ellipse 3" cx="21.8235" cy="20.9485" r="20.8371" fill="#7FAA3E"/>
<g id="linkedin">
<path d="M12.4078 30.7532H16.6921V16.8834H12.4078V30.7532Z" fill="white"/>
<path d="M12.0183 12.4555C12.0183 13.823 13.1218 14.93 14.5499 14.93C15.9131 14.93 17.0166 13.823 17.0166 12.4555C17.0166 11.0881 15.9131 9.91602 14.5499 9.91602C13.1218 9.91602 12.0183 11.0881 12.0183 12.4555Z" fill="white"/>
<path d="M28.5063 30.7532H32.8555V23.1346C32.8555 19.423 32.0116 16.4927 27.6624 16.4927C25.5852 16.4927 24.1571 17.6648 23.5729 18.7718H23.508V16.8834H19.4184V30.7532H23.7027V23.916C23.7027 22.0927 24.0273 20.3346 26.2992 20.3346C28.5063 20.3346 28.5063 22.4183 28.5063 23.9811V30.7532Z" fill="white"/>
</g>
</g>
</svg>
