<svg width="42" height="42" viewBox="0 0 42 42" fill="none" xmlns="http://www.w3.org/2000/svg">
<g id="Group 55">
<circle id="Ellipse 3" cx="20.9361" cy="21.0686" r="20.8371" fill="#7FAA3E"/>
<path id="Vector" d="M18.9541 24.0312L24.1441 21.0312L18.9541 18.0312V24.0312ZM30.5141 16.2013C30.6441 16.6713 30.7341 17.3012 30.7941 18.1012C30.8641 18.9012 30.8941 19.5912 30.8941 20.1912L30.9541 21.0312C30.9541 23.2213 30.7941 24.8313 30.5141 25.8612C30.2641 26.7612 29.6841 27.3412 28.7841 27.5912C28.3141 27.7212 27.4541 27.8112 26.1341 27.8713C24.8341 27.9412 23.6441 27.9713 22.5441 27.9713L20.9541 28.0312C16.7641 28.0312 14.1541 27.8712 13.1241 27.5912C12.2241 27.3412 11.6441 26.7612 11.3941 25.8612C11.2641 25.3912 11.1741 24.7613 11.1141 23.9613C11.0441 23.1613 11.0141 22.4713 11.0141 21.8713L10.9541 21.0312C10.9541 18.8412 11.1141 17.2313 11.3941 16.2013C11.6441 15.3013 12.2241 14.7213 13.1241 14.4713C13.5941 14.3413 14.4541 14.2512 15.7741 14.1912C17.0741 14.1212 18.2641 14.0912 19.3641 14.0912L20.9541 14.0312C25.1441 14.0312 27.7541 14.1913 28.7841 14.4713C29.6841 14.7213 30.2641 15.3013 30.5141 16.2013Z" fill="white"/>
</g>
</svg>
