<svg width="42" height="42" viewBox="0 0 42 42" fill="none" xmlns="http://www.w3.org/2000/svg">
<g id="Group 55">
<circle id="Ellipse 3" cx="21.0487" cy="20.9485" r="20.8371" fill="#7FAA3E"/>
<path id="Vector" d="M29.7281 15.8778C28.6963 15.6542 27.7629 15.1142 27.0619 14.3354C26.3608 13.5565 25.9281 12.5788 25.8259 11.5426V11.0938H22.255V25.0379C22.2557 25.6567 22.0589 26.2599 21.6924 26.7623C21.3259 27.2647 20.8083 27.6406 20.2129 27.837C19.6175 28.0333 18.9745 28.04 18.3751 27.8562C17.7756 27.6724 17.25 27.3074 16.8727 26.8128C16.5347 26.3751 16.3277 25.8528 16.2752 25.3052C16.2227 24.7576 16.3266 24.2063 16.5754 23.7139C16.8242 23.2215 17.2078 22.8075 17.6829 22.5187C18.1579 22.2299 18.7055 22.0779 19.2637 22.0798C19.5724 22.078 19.8795 22.1228 20.1745 22.2124V18.6422C19.8312 18.6003 19.4853 18.5832 19.1395 18.5912C17.8656 18.6247 16.6294 19.0236 15.5821 19.739C14.5348 20.4544 13.7219 21.4553 13.2429 22.619C12.764 23.7828 12.6398 25.0589 12.8856 26.2911C13.1313 27.5234 13.7364 28.6583 14.6266 29.5568C15.539 30.471 16.7066 31.0972 17.9809 31.356C19.2553 31.6147 20.5789 31.4943 21.7837 31.01C22.9884 30.5257 24.0199 29.6993 24.747 28.636C25.4741 27.5726 25.8641 26.3202 25.8673 25.0379V17.8975C27.3076 18.9114 29.0346 19.4538 30.8045 19.448V15.9798C30.4569 15.9812 30.11 15.9471 29.7695 15.8778H29.7281Z" fill="white"/>
</g>
</svg>
