<svg width="43" height="42" viewBox="0 0 43 42" fill="none" xmlns="http://www.w3.org/2000/svg">
<g id="Group 51">
<circle id="Ellipse 24" cx="21.551" cy="20.9957" r="20.8844" fill="#7FAA3E"/>
<path id="Vector" d="M27.3584 13.4266C27.0911 13.4266 26.8299 13.5059 26.6076 13.6544C26.3854 13.8029 26.2122 14.0139 26.1099 14.2609C26.0077 14.5078 25.9809 14.7795 26.033 15.0416C26.0852 15.3038 26.2139 15.5445 26.4029 15.7335C26.5919 15.9225 26.8326 16.0512 27.0948 16.1034C27.3569 16.1555 27.6286 16.1287 27.8755 16.0265C28.1225 15.9242 28.3335 15.751 28.482 15.5288C28.6305 15.3065 28.7098 15.0453 28.7098 14.778C28.7098 14.4196 28.5674 14.0759 28.314 13.8224C28.0605 13.569 27.7168 13.4266 27.3584 13.4266ZM32.5386 16.1519C32.5167 15.2175 32.3417 14.2931 32.0205 13.4154C31.7342 12.6644 31.2885 11.9844 30.7142 11.4222C30.1566 10.8449 29.475 10.4021 28.721 10.1271C27.8456 9.79622 26.9202 9.61722 25.9845 9.59784C24.7909 9.53027 24.408 9.53027 21.3449 9.53027C18.2819 9.53027 17.899 9.53027 16.7053 9.59784C15.7697 9.61722 14.8442 9.79622 13.9689 10.1271C13.2162 10.4049 12.5352 10.8473 11.9756 11.4222C11.3984 11.9798 10.9556 12.6614 10.6806 13.4154C10.3497 14.2908 10.1707 15.2162 10.1513 16.1519C10.0837 17.3455 10.0837 17.7284 10.0837 20.7915C10.0837 23.8545 10.0837 24.2374 10.1513 25.4311C10.1707 26.3667 10.3497 27.2922 10.6806 28.1675C10.9556 28.9216 11.3984 29.6031 11.9756 30.1608C12.5352 30.7356 13.2162 31.1781 13.9689 31.4558C14.8442 31.7867 15.7697 31.9657 16.7053 31.9851C17.899 32.0527 18.2819 32.0527 21.3449 32.0527C24.408 32.0527 24.7909 32.0527 25.9845 31.9851C26.9202 31.9657 27.8456 31.7867 28.721 31.4558C29.475 31.1808 30.1566 30.738 30.7142 30.1608C31.2911 29.6006 31.7371 28.92 32.0205 28.1675C32.3417 27.2898 32.5167 26.3654 32.5386 25.4311C32.5386 24.2374 32.6061 23.8545 32.6061 20.7915C32.6061 17.7284 32.6061 17.3455 32.5386 16.1519ZM30.5115 25.2959C30.5033 26.0108 30.3739 26.719 30.1287 27.3905C29.9489 27.8806 29.6601 28.3234 29.2841 28.6856C28.9188 29.0578 28.4769 29.346 27.989 29.5302C27.3175 29.7754 26.6093 29.9048 25.8945 29.913C24.7683 29.9693 24.3517 29.9806 21.39 29.9806C18.4283 29.9806 18.0116 29.9806 16.8855 29.913C16.1433 29.9269 15.4042 29.8126 14.7008 29.5752C14.2344 29.3816 13.8127 29.0941 13.4621 28.7306C13.0883 28.3688 12.8031 27.9256 12.6288 27.4356C12.3538 26.7544 12.2013 26.0301 12.1783 25.2959C12.1783 24.1698 12.1108 23.7532 12.1108 20.7915C12.1108 17.8298 12.1108 17.4131 12.1783 16.287C12.1834 15.5562 12.3168 14.832 12.5725 14.1474C12.7707 13.672 13.075 13.2483 13.4621 12.9086C13.8042 12.5214 14.2271 12.2139 14.7008 12.0077C15.3873 11.76 16.1107 11.6306 16.8405 11.6249C17.9666 11.6249 18.3832 11.5573 21.3449 11.5573C24.3066 11.5573 24.7233 11.5573 25.8494 11.6249C26.5642 11.6331 27.2725 11.7625 27.944 12.0077C28.4557 12.1977 28.915 12.5064 29.2841 12.9086C29.6531 13.2546 29.9415 13.6775 30.1287 14.1474C30.3789 14.8331 30.5085 15.557 30.5115 16.287C30.5678 17.4131 30.5791 17.8298 30.5791 20.7915C30.5791 23.7532 30.5678 24.1698 30.5115 25.2959ZM21.3449 15.0145C20.2028 15.0167 19.087 15.3574 18.1385 15.9935C17.1899 16.6297 16.4512 17.5327 16.0157 18.5885C15.5802 19.6443 15.4674 20.8055 15.6916 21.9254C15.9158 23.0453 16.4668 24.0736 17.2752 24.8804C18.0836 25.6872 19.113 26.2363 20.2333 26.4583C21.3536 26.6803 22.5146 26.5652 23.5695 26.1276C24.6245 25.69 25.5261 24.9496 26.1604 23.9998C26.7947 23.05 27.1332 21.9336 27.1332 20.7915C27.1347 20.0315 26.9859 19.2786 26.6954 18.5763C26.4049 17.874 25.9784 17.2361 25.4405 16.6992C24.9025 16.1623 24.2638 15.7371 23.5609 15.448C22.858 15.1588 22.1049 15.0115 21.3449 15.0145ZM21.3449 24.5414C20.6033 24.5414 19.8782 24.3215 19.2616 23.9095C18.6449 23.4974 18.1642 22.9117 17.8804 22.2265C17.5966 21.5413 17.5223 20.7873 17.667 20.0599C17.8117 19.3325 18.1689 18.6643 18.6933 18.1398C19.2177 17.6154 19.8859 17.2582 20.6133 17.1135C21.3408 16.9688 22.0948 17.0431 22.78 17.3269C23.4652 17.6108 24.0509 18.0914 24.4629 18.7081C24.875 19.3248 25.0949 20.0498 25.0949 20.7915C25.0949 21.2839 24.9979 21.7716 24.8095 22.2265C24.621 22.6815 24.3448 23.0949 23.9966 23.4431C23.6483 23.7913 23.235 24.0675 22.78 24.256C22.325 24.4444 21.8374 24.5414 21.3449 24.5414Z" fill="white"/>
</g>
</svg>
